<?xml version="1.0" encoding="UTF-8"?>
<svg id="Capa_2" data-name="Capa 2" xmlns="http://www.w3.org/2000/svg" viewBox="0 0 354.65 198.43">
  <defs>
    <style>
      .cls-1 {
        fill: #655d8a;
      }
    </style>
  </defs>
  <g id="Capa_1-2" data-name="Capa 1">
    <g>
      <path class="cls-1" d="m124.87,179c-4.36,7.06-9.91,14.27-18.87,14.27-12.93,0-21.09-12.53-21.09-24.27,0-16.97,9.75-26.09,19.83-26.09,7.69,0,10.39,5.47,10.39,11.02,0,2.85,1.66,4.2,4.04,4.2s4.2-1.51,4.2-4.04c0-6.26-8.64-13.01-18.24-13.01-16.02,0-28.15,12.05-28.15,29.5,0,16.26,11.82,27.76,25.46,27.76,11.66,0,18.24-7.69,23.63-18.64.08-.24-.87-1.19-1.19-.71Z"/>
      <path class="cls-1" d="m153.5,154.65c-4.36,0-5.39,2.14-9.99,6.74l-2.22,2.22v-8.49c0-.63-.4-.71-1.19-.55-3.41.63-8.09,1.19-11.42,1.82-.32.08-.32,1.11.08,1.11,4.68-.24,5.15,3.01,5.15,7.69v32.35h7.38v-32.12l5.87-5.79c.79-.79,1.59-1.11,2.38-1.11,1.67,0,3.25,1.59,4.76,3.09.63.63,1.35.87,2.06.87,2.62,0,5.08-3.49,2.78-5.79-1.27-1.27-3.81-2.06-5.63-2.06Z"/>
      <path class="cls-1" d="m203.06,192.64c-1.43,1.82-2.62,2.7-3.96,2.7-1.82,0-2.54-1.59-2.54-3.81v-23c0-11.58-7.45-13.8-14.83-13.8-5.71,0-18.16,4.76-18.16,11.89,0,2.14,1.74,3.17,3.49,3.17s3.41-1.03,3.41-3.09c0-5.87,3.25-10.31,8.88-10.31,5.15,0,9.83,3.65,9.83,11.42v4.04c-3.49.63-6.58,1.27-9.28,1.98-13.4,3.49-17.21,8.25-17.21,14.43s5.55,10.07,12.21,10.07c7.61,0,12.45-6.82,14.2-12.37h.16v5.79c0,2.22.71,6.66,5.95,6.66,3.33,0,6.82-2.22,8.88-5.08.16-.32-.79-1.11-1.03-.71Zm-13.88-9.6c-2.06,6.66-5.79,11.1-11.26,11.1-4.36,0-8.17-3.09-8.17-7.85,0-3.17.55-8.01,10.55-11.26,2.38-.71,5.31-1.43,8.88-1.98v9.99Z"/>
      <path class="cls-1" d="m231.37,189.7c-2.46,3.65-4.44,5-6.82,5-3.01,0-5.15-2.22-5.15-7.69v-28.94h9.99l1.11-2.38h-11.02v-13.88c0-.32-1.03-.48-1.19,0-1.43,7.45-5.71,14.2-12.37,14.2l-.32,2.06h6.42v29.34c0,7.93,4.52,11.02,9.91,11.02,4.12,0,7.14-2.78,10.47-8.01.16-.32-.79-1.03-1.03-.71Z"/>
      <path class="cls-1" d="m273.24,183.6c-3.33,5.39-7.61,10.31-14.59,10.31-11.18,0-16.1-9.83-16.1-17.76v-1.51h22.05c5.63,0,8.33-3.25,8.33-7.22,0-5.71-5.31-12.69-15.46-12.69-12.77,0-22.28,9.44-22.28,22.36,0,12.05,8.8,21.25,20.94,21.25,8.88,0,13.88-5.87,18-14.2.08-.24-.63-.95-.87-.55Zm-16.1-27.68c6.98,0,9.99,5,9.99,9.67,0,4.04-2.3,7.85-6.26,7.85h-18.32c1.27-9.36,7.22-17.53,14.59-17.53Z"/>
      <polygon class="cls-1" points="97.39 127.64 116.11 79.83 116.11 127.64 123.48 127.64 123.48 72.13 117.14 72.13 99.54 117.1 81.93 72.13 73.92 72.13 75.11 75.78 75.11 127.64 76.93 127.64 76.93 79.83 95.73 127.64 97.39 127.64"/>
      <path class="cls-1" d="m147.51,103.93c-13.4,3.49-17.21,8.25-17.21,14.43s5.55,10.07,12.21,10.07c7.61,0,12.45-6.82,14.2-12.37h.16v5.79c0,2.22.71,6.66,5.95,6.66,3.33,0,6.82-2.22,8.88-5.08.16-.32-.79-1.11-1.03-.71-1.43,1.82-2.62,2.7-3.96,2.7-1.82,0-2.54-1.59-2.54-3.81v-23c0-11.58-7.45-13.8-14.83-13.8-5.71,0-18.16,4.76-18.16,11.89,0,2.14,1.74,3.17,3.49,3.17s3.41-1.03,3.41-3.09c0-5.87,3.25-10.31,8.88-10.31,5.15,0,9.83,3.65,9.83,11.42v4.04c-3.49.63-6.58,1.27-9.28,1.98Zm9.28,9.2c-2.06,6.66-5.79,11.1-11.26,11.1-4.36,0-8.17-3.09-8.17-7.85,0-3.17.55-8.01,10.55-11.26,2.38-.71,5.31-1.43,8.88-1.98v9.99Z"/>
      <path class="cls-1" d="m209.92,90.06c.63.63,1.35.87,2.06.87,2.62,0,5.08-3.49,2.78-5.79-1.27-1.27-3.81-2.06-5.63-2.06-3.25,0-4.84,1.27-7.14,3.96-2.85-1.43-6.11-2.22-9.44-2.22-10.55,0-18.32,6.58-18.32,14.99,0,6.03,4.92,11.1,10.79,13.48-3.73,1.67-6.82,4.36-6.82,8.8,0,1.11.48,3.41,2.7,4.84-3.97,3.09-8.01,5.71-8.01,11.1,0,6.19,8.01,10.63,20.3,10.63,10.71,0,21.49-7.14,21.49-15.54,0-5.31-4.2-11.5-14.43-11.5h-13.01c-3.33,0-4.6-1.11-4.52-2.62,0-1.67,1.51-3.73,3.57-5.15,1.74.48,4.2.79,6.19.79,10.07,0,18.16-6.58,18.16-14.91,0-5.15-3.01-9.44-7.45-12.05.63-.55,1.27-.79,1.9-.79,1.67,0,3.33,1.67,4.84,3.17Zm-24.03,38.14h13.88c7.85,0,8.88,5,8.88,7.3,0,7.22-8.09,11.97-15.46,11.97-9.75,0-15.15-5.79-15.15-10.94,0-3.73,1.67-6.5,3.96-8.96.95.32,2.54.63,3.89.63Zm17.37-28.39c0,7.3-3.65,13.64-10.71,13.64s-10.94-6.34-10.94-13.64c0-7.77,3.73-13.8,10.86-13.8s10.79,6.03,10.79,13.8Z"/>
      <path class="cls-1" d="m228.31,128.36c3.33,0,6.9-2.22,8.96-5.08.16-.32-.79-1.11-1.03-.71-1.43,1.82-2.62,2.7-3.96,2.7-1.82,0-2.54-1.59-2.54-3.81v-36.16c0-.63-.4-.71-1.19-.55-3.41.63-8.09,1.19-11.42,1.82-.32.08-.32,1.11.08,1.11,4.68-.24,5.15,3.01,5.15,7.69v26.33c0,2.22.71,6.66,5.95,6.66Z"/>
      <path class="cls-1" d="m277.32,113.69c-3.33,5.39-7.61,10.31-14.43,10.31-9.83,0-15.23-8.96-15.23-17.92,0-12.93,6.58-20.06,14.27-20.06,5.87,0,7.93,4.28,7.93,8.56,0,2.14,1.27,3.17,3.09,3.17s3.17-1.11,3.17-3.09c0-4.76-6.58-9.83-13.88-9.83-12.21,0-21.49,9.12-21.49,22.44,0,12.37,9.04,21.17,19.43,21.17,8.88,0,13.88-5.87,18-14.2.08-.24-.63-.95-.87-.55Z"/>
      <path class="cls-1" d="m149.17,66.3h4.42v-32.19c4.37.09,7.89,1.43,10.79,4.18v-5.28h-26.01v5.28c2.9-2.76,6.42-4.09,10.79-4.18v32.19Z"/>
      <path class="cls-1" d="m166.01,32.44c2.81-.14,3.09,1.81,3.09,4.61v29.24h4.42v-18.45l2-2.33c1.57-1.85,3.28-2.62,4.75-2.62,2.76,0,4.9,2.52,4.9,5.52v14.31c0,1.33.43,3.99,3.57,3.99,2,0,4.14-1.33,5.37-3.04.1-.19-.43-.67-.62-.43-.81,1.09-1.57,1.62-2.38,1.62-1.09,0-1.52-.95-1.52-2.28v-14.17c0-4.95-3-7.75-6.7-7.75-2.57,0-5.52,1.38-7.99,4.37l-1.38,1.66v-15.69c0-.38-.24-.43-.71-.33-2.04.38-4.85.71-6.85,1.09-.19.05-.19.67.05.67Z"/>
      <path class="cls-1" d="m206.9,66.77c5.33,0,8.32-3.52,10.79-8.51.05-.14-.38-.57-.52-.33-2,3.23-4.56,6.18-8.75,6.18-6.7,0-9.65-5.9-9.65-10.65v-.9h13.22c3.38,0,4.99-1.95,4.99-4.33,0-3.42-3.19-7.61-9.27-7.61-7.65,0-13.36,5.66-13.36,13.41,0,7.23,5.28,12.74,12.55,12.74Zm.62-25.44c4.18,0,5.99,3,5.99,5.8,0,2.42-1.38,4.71-3.76,4.71h-10.98c.76-5.61,4.33-10.51,8.75-10.51Z"/>
      <path class="cls-1" d="m217.75,72.21c3.88,1.01,6.93,4.06,7.94,7.94.1.38.62.38.72,0,1.01-3.88,4.06-6.93,7.94-7.94.38-.1.38-.62,0-.72-3.88-1.01-6.93-4.06-7.94-7.94-.1-.38-.62-.38-.72,0-1.01,3.88-4.06,6.93-7.94,7.94-.38.1-.38.62,0,.72Z"/>
      <path class="cls-1" d="m354.57,83.11c-.04-.4-.12-.81-.22-1.23-.06-.22-.12-.44-.2-.67-.08-.21-.11-.33-.24-.61-.33-.88-.67-1.91-.98-2.89-.31-1.03-.61-2.06-.87-3.1-.54-2.08-.99-4.19-1.33-6.32-.7-4.25-1-8.52-.81-12.78.08-2.16.23-4.32.61-6.24.09-.49.2-.93.35-1.44.13-.47.34-1.12.48-1.88.15-.77.16-1.54.14-2.2,0-.35-.04-.66-.06-.97-.03-.32-.05-.63-.1-.92-.32-2.38-.76-4.57-1.2-6.8-.47-2.22-1-4.42-1.54-6.61-1.06-4.37-2.36-8.65-2.69-12.76-.14-1.97-.09-4.35-.14-6.57l-.08-6.75v-.11s0-.07,0-.07c0-.12-.01-.17-.02-.22-.03-.22-.08-.4-.17-.6-.16-.39-.49-.82-.93-1.06-.43-.25-.85-.31-1.17-.31-.19,0-.3.02-.44.04-.13.02-.28.04-.38.08-.87.26-1.41.62-1.93.99-1.03.75-1.86,1.48-2.76,2.48-.82.98-1.42,2.06-1.93,3.16-.45,1.11-.85,2.24-1.1,3.38-.55,2.28-.74,4.58-.78,6.85-.03,2.28.12,4.55.47,6.78v.05s.02.04.02.04c.12.34.21.75.28,1.14.06.39.09.8.09,1.2,0,.69-.13,1.37-.38,2.02l-5.4-5.97.02.03c-2.07-2.73-4.5-5.16-7.18-7.28-.67-.53-1.35-1.02-1.98-1.57-.63-.54-1.21-1.14-1.77-1.77-1.11-1.23-1.99-2.68-2.88-4.11-.44-.72-.88-1.45-1.35-2.16-.24-.36-.48-.71-.76-1.05-.14-.17-.29-.34-.47-.49-.18-.14-.4-.34-.79-.3-.08.01-.19.06-.24.1l-.14.1-.27.2c-.17.14-.33.29-.5.44-.31.31-.61.63-.87.97-.54.68-1.01,1.41-1.39,2.18-.79,1.54-1.27,3.25-1.27,4.99-.02,1.74.48,3.48,1.43,4.94v.02s3.55,4.4,3.55,4.4l1.77,2.2c.58.76,1.28,1.42,1.98,2.05.7.63,1.42,1.24,2.09,1.89.33.33.65.66.92,1.03.27.36.41.77.6,1.22l1.94,4.66c-.22-.11-.45-.21-.66-.33-2.44-1.36-4.61-3.25-7.27-4.41-.67-.28-1.37-.52-2.13-.58-.72-.07-1.4-.11-2.09-.22-1.37-.2-2.76-.5-4.06-.92l-12.1-5.66h-.01c-.07-.04-.16-.04-.23,0-1.18.67-1.96,1.9-2.07,3.22-.12,1.32.29,2.59.88,3.7,1.19,2.23,2.88,4.12,4.83,5.68,1.96,1.55,4.17,2.76,6.47,3.69.57.23,1.16.45,1.74.66.6.19,1.09.46,1.63.77,1.05.63,2.07,1.32,3.08,2.02,1.36.96,2.71,1.93,4.05,2.92-.11-.07-.22-.16-.34-.22-.51-.26-.98-.53-1.52-.79-.33-.12-.7-.11-1.02.02-.16.07-.31.16-.43.28-.12.12-.2.21-.3.33-.37.43-.7.89-1.01,1.36-1.17,1.81-2.03,3.78-2.77,5.77-.2-.02-.4-.05-.6-.07-1.57-.22-3.13-.61-4.68-1.03-3.09-.86-6.14-1.9-9.16-3h-.01s0,0,0,0c-.16-.06-.33.02-.39.18-.33.9-.55,1.81-.7,2.74h-.02s.01.02.02.02c0,.03-.01.06-.02.09-.14.97-.18,1.97.03,2.96.06.25.14.49.22.73.12.23.2.48.35.69.27.44.68.82,1.06,1.1.77.58,1.57,1.12,2.39,1.64,2.66,1.68,5.49,3.07,8.4,4.23-1.58,2.36-2.35,5.1-2.98,7.81-.63,2.82-1.05,5.66-1.47,8.47-.39,2.8-.71,5.62-1.32,8.21-.14.63-.34,1.32-.53,1.72-.06.2-.25.53-.39.8-.14.28-.29.57-.47.87l-2.08,3.72c-1.4,2.55-2.65,5.27-3.58,8.12-.22.72-.49,1.42-.66,2.15l-.55,2.19c-.17.73-.27,1.49-.41,2.23l-.19,1.12c-.05.38-.07.75-.11,1.13-.59,6.04.25,12.2,2.17,17.87,1.89,5.6,4.77,10.69,5.82,15.54.26,1.21.39,2.42.39,3.62-.01.3,0,.62-.03.9l-.12.89-.31,2.08c-.44,2.78-.85,5.59-1.24,8.39-.39,2.8-.82,5.6-1.19,8.41l-1.09,8.43-.94,8.46-.47,4.23-.37,4.25v.02c0,.08.05.15.13.17.09.02.17-.04.18-.13l6.21-33.41,1.51-8.36.36-2.1.17-1.07c.04-.36.04-.72.07-1.08.05-1.44-.07-2.88-.33-4.29-.55-2.82-1.6-5.49-2.68-8.11-1.08-2.62-2.17-5.23-3.08-7.9-1.86-5.31-2.65-11-2.2-16.6.4-5.62,2.26-11.05,4.76-16.09l1.93-3.78c.16-.31.32-.63.46-.96.14-.33.32-.64.42-.99.26-.69.4-1.39.52-2.09.49-2.81.66-5.64.89-8.47.21-2.82.42-5.65.84-8.44.21-1.39.48-2.78.85-4.14.35-1.28.77-2.58,1.41-3.71.55.22,1.11.44,1.66.65h.05c.78.22,1.57.8,2.23,1.39.68.61,1.26,1.31,1.85,2.04,1.21,1.47,2.66,2.67,4.03,3.92.69.62,1.38,1.25,2,1.92.18.2.36.4.52.62-.25.18-.48.4-.65.62-.23.26-.42.52-.59.79-.35.53-.66,1.07-.89,1.61-.49,1.09-.81,2.18-1.02,3.28-.41,2.2-.4,4.4.09,6.62l.18.85c.16.73.75,1.33,1.53,1.47.85.15,1.38-.01,1.71-.15.36-.14.6-.3.84-.46.44-.33.77-.67,1.08-1.04.29-.38.54-.77.77-1.17.12-.23.23-.46.33-.7,0,.23-.03.47-.09.7-.35,1.82-.74,3.66-1.01,5.5-.28,1.85-.48,3.71-.52,5.59-.03,1.87.08,3.77.67,5.58.03.08.11.12.19.11.09-.02.14-.1.12-.19v-.02c-.42-1.8-.32-3.65-.16-5.46.17-1.82.5-3.63.9-5.42.4-1.81.9-3.54,1.39-5.4.03-.11.06-.24.09-.39.03-.15.06-.26.07-.47.04-.43,0-.69,0-1-.06-.54-.15-1.05-.25-1.53-.2-.97-.42-1.89-.64-2.8-.44-1.83-.93-3.59-1.09-5.25-.04-.21-.08-.43-.14-.64-.06-.18-.13-.35-.2-.52-.14-.37-.31-.6-.47-.9-.17-.26-.34-.49-.51-.73l-.52-.64c-.7-.81-1.4-1.49-2.08-2.15-1.35-1.31-2.71-2.56-3.61-3.77l-.43-.56c-.16-.21-.33-.42-.5-.63-.34-.42-.73-.82-1.14-1.21-.41-.39-.87-.77-1.4-1.12-.26-.18-.55-.35-.86-.51-.16-.08-.33-.16-.52-.23l-.31-.11c-.05-.01-.09-.03-.13-.04-1.68-.66-3.34-1.38-4.95-2.21-1.63-.82-3.19-1.75-4.7-2.72-.75-.49-1.48-.99-2.17-1.52l-.13-.1s-.09-.07-.08-.07c0-.02-.01-.03-.03-.04-.04,0-.03-.07-.07-.09-.03-.03-.04-.12-.08-.16-.02-.09-.05-.18-.08-.28-.08-.33-.08-.79-.03-1.31,2.11.73,4.24,1.39,6.44,1.98,1.63.43,3.27.82,5.09,1.06l1.26.14c.37.03.72.09,1.07.13.69.11,1.35.25,1.93.43.58.19,1.09.39,1.6.7.52.3,1.08.73,1.74,1.23,1.4,1.05,2.73,1.93,4.08,2.85,2.64,1.78,5.28,3.52,7.97,5.22.81.77,1.5,1.69,2.02,2.8.58,1.17.95,2.49,1.42,3.99.26.76.46,1.55,1.08,2.58.2.25.49.99.72,1.65.48,1.37.93,2.86,1.45,4.32.55,1.46,1.15,2.91,1.9,4.32.37.7.78,1.4,1.24,2.06.24.33.45.67.73.97.26.31.54.64.77.89.96,1.07,1.8,2.26,2.34,3.58.58,1.31.89,2.78.7,4.26h0c0,.09.04.17.12.19.09.02.17-.03.19-.12.34-1.51.17-3.11-.3-4.56-.48-1.47-1.28-2.8-2.21-4.01-1.92-2.33-2.97-5.21-3.85-8.08-.44-1.44-.8-2.91-1.22-4.37-.22-.73-.42-1.47-.82-2.17-.35-.62-.55-1.35-.74-2.07-.38-1.46-.75-2.95-1.36-4.36-.6-1.42-1.47-2.73-2.57-3.82,0,0,0,0-.01-.01-.04-1.18-.07-2.36-.06-3.53,0-.61.02-1.23.04-1.82.01-.3.04-.59.07-.86l.08-.41c.04-.19.05-.38.07-.56.03-1.47-.46-2.84-1.42-4.01-.25-.28-.53-.56-.86-.79-.32-.23-.42-.32-.69-.54l-1.4-1.17c-3.72-3.24-7.53-6.38-11.48-9.46-1-.77-2.01-1.5-3.15-2.23l-.45-.27c-.14-.09-.29-.18-.51-.28l-.61-.29c-.19-.08-.29-.12-.44-.18-.55-.22-1.09-.44-1.61-.68-2.1-.94-4.03-2.12-5.7-3.52-.83-.7-1.59-1.47-2.27-2.29-.67-.82-1.26-1.74-1.69-2.58-.39-.78-.54-1.5-.5-1.96l10.16,4.86c.08.04.17.08.26.11.48.17.81.26,1.21.38.38.11.76.2,1.15.29.76.18,1.54.32,2.32.42.39.05.78.1,1.18.13.2.02.4.03.59.05.19.01.45.03.47.04.28,0,.73.14,1.21.34.97.4,2.09,1.09,3.23,1.83,1.15.75,2.35,1.58,3.79,2.38.38.2.75.39,1.18.57l.82.37c.53.27,1.1.59,1.68.92,1.16.67,2.33,1.41,3.5,2.16,2.33,1.5,4.67,3.09,6.95,4.69l.8.39s.1.03.18.06c.09.04.19.07.28.12.19.09.38.19.57.29.37.22.7.47,1,.76.56.59,1,1.29,1.2,2.15l.06.33c.02.12.05.2.07.38l.13.96c.09.64.19,1.28.32,1.92.24,1.28.53,2.6.95,3.86.41,1.27.9,2.48,1.39,3.65.43.96.7,2.08.95,3.25.45,2.34.82,4.8,1.07,7.23v.08c.22,1.23.47,2.39.75,3.57.28,1.17.6,2.34.94,3.49.66,2.32,1.56,4.56,2.6,6.72h0c.04.08.12.12.2.09.08-.03.12-.12.09-.2-.84-2.21-1.5-4.5-2.02-6.81-.52-2.31-.93-4.65-1.19-7-.09-2.5-.27-4.98-.63-7.46-.2-1.23-.42-2.48-.87-3.67-.43-1.17-.84-2.34-1.16-3.53-.33-1.19-.57-2.41-.75-3.63-.09-.61-.17-1.23-.24-1.84-.06-.62-.12-1.23-.23-1.87-.23-1.27-.84-2.46-1.69-3.42-.87-.93-1.93-1.65-3.15-2.07-2.28-1.67-4.57-3.31-6.91-4.9-1.17-.79-2.36-1.58-3.57-2.32-.61-.37-1.23-.73-1.86-1.06-.27-.13-.52-.24-.77-.36-.48-1.76-.95-3.51-1.48-5.24l-.21-.7c-.11-.32-.25-.59-.39-.84-.29-.5-.62-.89-.95-1.27-.66-.76-1.33-1.44-1.96-2.11-.31-.34-.61-.67-.88-1-.14-.16-.26-.33-.38-.49l-.37-.53-1.61-2.32c-1.08-1.55-2.14-3.11-3.25-4.63l.13.18c-1.29-2.31-.96-5.01.37-7.41.22-.42.49-.8.77-1.17.3.49.61,1,.93,1.54.9,1.47,1.8,3.03,3.16,4.59.59.67,1.28,1.41,2.03,2.07.73.66,1.53,1.22,2.11,1.67,1.25.95,2.44,1.99,3.57,3.1.56.56,1.11,1.13,1.64,1.71.51.57,1.06,1.22,1.46,1.74l.1.13s.07.08.1.12l5.79,6c1.64,2.02,3.37,3.91,5.12,5.83.91.97,1.82,1.95,2.8,2.88l.67.65c.21.2.4.41.6.62.38.42.72.87,1.04,1.34.61.95,1.05,1.99,1.38,3.14.33,1.15.5,2.4.66,3.7.16,1.32.44,2.68.8,3.97.31,1.18.81,2.34,1.14,3.43-.05.97-.06,1.93-.08,2.9.03,1.12.02,2.25.11,3.37.11,2.24.39,4.47.73,6.69.71,4.43,1.78,8.8,3.31,13.04l.02.04c.21.45.35,1.06.41,1.63.07.58.08,1.17.06,1.76-.05,1.18-.27,2.36-.56,3.51-.6,2.31-1.53,4.54-2.61,6.68-2.26,4.28-4.13,8.77-5.89,13.27-3.47,9.03-6.55,18.21-9.23,27.51-.17.58-.32,1.17-.47,1.76-.13.59-.21,1.22-.28,1.82-.11,1.21-.22,2.42-.29,3.62-.17,2.41-.29,4.83-.41,7.24-.24,4.83-.43,9.66-.61,14.49-.36,9.66-.66,19.32-.94,28.99,0,.08.06.15.14.16.09,0,.16-.06.17-.14h0s.63-7.24.63-7.24l.54-7.24,1.13-14.46c.34-4.82.68-9.64,1.07-14.45.2-2.4.37-4.81.59-7.19.1-1.2.23-2.37.37-3.52.09-.57.14-.93.27-1.48.16-.55.32-1.11.5-1.68,2.9-9.09,6.03-18.25,9.61-27.1.89-2.22,1.79-4.42,2.76-6.58.46-1.09.99-2.13,1.48-3.21l1.62-3.18c1.17-2.28,2.19-4.68,2.89-7.3.34-1.31.61-2.67.68-4.14.03-.73.03-1.49-.06-2.28Zm-36.5-2.92c.27.89.53,1.78.76,2.68.09.39.19.77.25,1.14-.62.41-1.25.8-1.9,1.14-.34.18-.69.36-1.04.5-.26.1-.55.19-.78.2l.12-3.01c.07-1.08.07-2.17.13-3.26.05-1.08.1-2.17.18-3.25.09-.93.13-1.89.32-2.77.25.38.45.78.53,1.2.3,1.87.91,3.64,1.43,5.43Zm-5.86-33.37l.06-.04s.03-.02.02,0l-.04.05c-.12.14-.27.25-.43.33.1-.08.19-.17.28-.24l.11-.09Zm2.42,8.68c-.63-.5-1.27-1.01-1.96-1.46-.7-.45-1.46-.8-2.24-1.05-1.2-.4-2.45-.59-3.68-.74,1.68-1.54,3.03-3.13,4.36-4.44.06-.06.11-.11.17-.16l.37.24c.37.24.68.52,1.03.76,1.32,1.03,2.3,2.25,3.2,3.83.81,1.49,1.45,3.29,2.01,5.41-1.1-.78-2.2-1.57-3.26-2.4Zm8.32-3.1c.51.38,1.06.65,1.45,1.08.8.86,1.31,2.04,1.35,3.22,0,.29-.05.57-.08.91-.02.32-.02.63-.01.94.01.62.06,1.24.11,1.86.09,1.08.21,2.15.34,3.23-2.54-1.75-5.07-3.51-7.58-5.29-.05-.03-.09-.07-.14-.1.52-2.11.52-4.34-.06-6.46-.56-2-1.68-3.89-3.26-5.27,2.13,1.59,4.26,3.19,6.39,4.79l1.5,1.09Zm-28.53-26.94s0,0,0,0c0,0,0,0,0,0h0Zm54.15,19.97c-.21,1.04-.65,2.12-.86,3.23-.41,1.9-.59,3.81-.71,5.73-.02-.07-.03-.15-.05-.22-.14-.64-.27-1.27-.37-1.92-.22-1.28-.34-2.57-.37-3.88-.05-1.31-.1-2.63-.33-3.93-.22-1.31-.65-2.58-1.28-3.76-.62-1.18-1.47-2.22-2.36-3.18-.88-.96-1.73-1.95-2.57-2.95-1.67-1.99-3.28-4.02-4.86-6.08.35-.71.55-1.48.6-2.27.05-.85-.02-1.69-.24-2.52-.2-2.22-.26-4.45-.13-6.67.13-2.22.42-4.44,1.03-6.57.28-1.08.7-2.1,1.15-3.11.5-.98,1.09-1.92,1.82-2.74.75-.78,1.63-1.49,2.54-2.1.46-.3.94-.57,1.44-.71.24-.06.5-.08.66.02.16.1.25.29.22.55l-.13,6.7c-.02,2.24-.14,4.46-.07,6.72.25,4.52,1.49,8.85,2.43,13.21.97,4.36,1.88,8.74,2.45,13.15.11,1.1.21,2.21,0,3.26Z"/>
      <path class="cls-1" d="m63.59,49.05c-.15-.57-.28-1.05-.52-1.7-.52-1.43-2.1-2.17-3.53-1.65l-.11.04c-2.92,1.05-5.95,2.09-8.92,2.94-1.48.41-2.98.79-4.35.98l-.19.03c-.15-1.49-.54-2.93-1.17-4.37-.24-.52-.51-1.05-.87-1.57.9-.57,1.8-1.14,2.67-1.62l.35-.19c.12-.07.24-.13.31-.14.08-.03.15-.06.23-.1.1-.04.29-.09.43-.14.61-.19,1.23-.4,1.85-.63,2.46-.92,4.91-2.13,7.09-3.81,1.09-.84,2.11-1.79,3.05-2.84.93-1.06,1.75-2.18,2.49-3.51.7-1.32,1.34-2.97,1.19-5-.08-1-.41-2.05-.98-2.94-.29-.44-.61-.86-.99-1.21-.18-.18-.39-.35-.6-.51-.1-.08-.22-.16-.34-.24l-.19-.12-.1-.06-.18-.09c-.69-.36-1.54-.42-2.29-.07l-.09.04-11.98,5.54c-.2.06-.48.14-.73.21-.3.08-.6.15-.91.22-.61.13-1.23.25-1.85.34-.31.04-.62.09-.93.12l-1.05.1c-1.14.11-2.04.44-2.87.78-1.64.71-2.91,1.57-4.13,2.37-.09.06-.17.12-.26.18.1-.19.21-.4.3-.54.07-.11.18-.25.31-.38.26-.27.58-.56.92-.84.68-.56,1.45-1.1,2.21-1.69.39-.3.78-.6,1.17-.94.19-.17.39-.35.58-.54l.53-.56,1.91-2.09c1.27-1.39,2.56-2.77,3.79-4.2l.02-.02.11-.16c1.19-1.69,1.9-3.84,1.95-5.96.08-2.14-.47-4.18-1.35-6-.43-.92-.96-1.79-1.59-2.62-.31-.42-.67-.82-1.06-1.22-.22-.2-.42-.4-.66-.6l-.41-.3-.21-.15-.03-.02-.14-.08c-.1-.05-.2-.1-.3-.14-.21-.08-.42-.15-.63-.18-.22-.04-.44-.05-.65-.04-.2,0-.35.03-.53.07-.38.08-.55.17-.78.27-.39.2-.62.38-.81.53-.37.31-.59.57-.79.79-.39.46-.67.85-.93,1.25-.52.78-.96,1.51-1.41,2.22-.88,1.41-1.75,2.76-2.65,3.73-.54.59-1.02,1.08-1.55,1.53-.55.46-1.12.88-1.88,1.48-1.43,1.13-2.76,2.35-4.02,3.64-.63.65-1.24,1.31-1.84,1.99-.58.67-1.09,1.3-1.67,2.09l-3.98,4.64c.03-.54.11-1.08.24-1.59h0s0-.03,0-.03c.21-2.23.27-4.48.15-6.72-.12-2.24-.41-4.48-1.02-6.65-.28-1.09-.7-2.14-1.17-3.17-.51-1.01-1.11-1.98-1.87-2.83-.79-.83-1.67-1.53-2.61-2.17-.47-.31-.97-.6-1.56-.77-.29-.06-.63-.12-.97.07-.33.18-.46.61-.42.89l.11,6.71c.02,2.23.13,4.48.05,6.69-.26,4.44-1.51,8.76-2.46,13.13-.98,4.37-1.91,8.74-2.49,13.2-.12,1.12-.22,2.26-.01,3.42.24,1.15.65,2.16.85,3.25.46,2.16.63,4.39.74,6.61.08,1.11.06,2.22.09,3.34-.04,1.11-.03,2.22-.12,3.33-.12,2.22-.4,4.43-.74,6.63-.71,4.39-1.79,8.75-3.31,12.91l.02-.04c-.3.64-.42,1.23-.49,1.86-.07.62-.08,1.24-.05,1.86.05,1.24.29,2.45.59,3.63.62,2.37,1.57,4.63,2.68,6.79,2.27,4.26,4.13,8.71,5.9,13.21,3.49,9,6.59,18.17,9.29,27.44.17.58.32,1.16.47,1.74.13.58.2,1.16.28,1.76.12,1.2.23,2.4.3,3.6.17,2.41.3,4.82.43,7.23.25,4.83.46,9.65.65,14.48.39,9.66.72,19.32,1.02,28.98,0,.08.07.15.15.15.09,0,.16-.07.16-.15h0s.19-7.27.19-7.27l.07-7.26.09-14.52c-.03-4.84-.09-9.68-.18-14.53-.04-2.43-.13-4.85-.24-7.29-.05-1.21-.13-2.45-.22-3.7-.06-.63-.17-1.47-.3-2.1-.15-.61-.29-1.23-.45-1.82-1.23-4.76-2.63-9.39-4.13-14.03-1.5-4.63-3.07-9.24-4.79-13.82-.42-1.15-.87-2.29-1.34-3.42-.45-1.14-.94-2.27-1.43-3.41-.47-1.14-1.02-2.26-1.53-3.39l-1.64-3.3c-1.02-2.03-1.87-4.11-2.4-6.17-.26-1.03-.44-2.05-.48-3-.02-.47,0-.93.05-1.34.03-.21.06-.39.09-.55l.06-.2s.08-.18-.05.07l.18-.37c.45-1.2.78-2.26,1.12-3.39.33-1.12.64-2.24.91-3.36.56-2.25,1.03-4.52,1.38-6.82.13-.85.24-1.7.35-2.56-.06,1.55-.05,3.09-.02,4.64v-.08c-.04,1.13-.14,2.32-.27,3.48-.13,1.17-.28,2.33-.47,3.5-.18,1.16-.42,2.32-.64,3.48-.23,1.16-.52,2.31-.84,3.45v.02c-.03.08.01.16.09.19.08.03.17,0,.2-.09.86-2.23,1.53-4.52,2.06-6.85.53-2.32.96-4.67,1.23-7.04h0s0-.01,0-.01c.1-2.48.29-4.97.66-7.42.2-1.22.42-2.44.86-3.59.44-1.17.86-2.35,1.19-3.56.34-1.21.59-2.44.78-3.68.1-.62.18-1.24.25-1.86.07-.62.13-1.25.23-1.83.22-1.19.79-2.29,1.59-3.19.81-.87,1.87-1.57,2.99-1.93h.01s.05-.02.07-.04c2.28-1.66,4.59-3.3,6.94-4.87,2.36-1.57,4.68-3.11,7.31-4.23,2.51-1.39,4.69-3.26,7.23-4.35.63-.26,1.29-.48,1.95-.53.69-.06,1.42-.11,2.12-.21,1.42-.2,2.81-.51,4.19-.96h.02s0-.01,0-.01l11.96-5.66c.91.56,1.58,1.59,1.67,2.7.11,1.15-.25,2.34-.81,3.4-1.13,2.14-2.77,4.01-4.67,5.53-1.91,1.52-4.07,2.71-6.33,3.64-.57.23-1.14.45-1.72.65-.58.18-1.18.51-1.7.82-1.07.64-2.09,1.34-3.1,2.05-.04.03-.08.06-.12.09-.82-.34-1.78-.39-2.67-.08l-.29.11-.11.05-.23.1-.45.21-.89.43c-.58.32-1.13.75-1.69,1.13-1.76,1.34-3.05,3.36-3.67,5.47-.59.44-1.17.89-1.76,1.33l-1.48,1.1c-.25.19-.49.34-.76.51-.28.17-.52.39-.74.62-.87.95-1.39,2.18-1.43,3.47.17,1.26.09,2.44,0,3.68-.02.25-.05.49-.07.74-.48.36-.96.71-1.44,1.07l-.15.11s-.1.08-.14.12c-1.29,1.33-2.27,2.92-2.89,4.54-.64,1.61-1,3.24-1.29,4.67-.14.7-.33,1.38-.46,1.68-.56,1.06-.68,1.81-.89,2.59-.37,1.53-.66,2.99-1.02,4.42-.67,2.88-1.47,5.66-3.15,8.03-.89,1.32-1.64,2.76-2.04,4.31-.37,1.55-.39,3.2.08,4.69v.02c.03.08.11.12.19.11.09-.02.14-.1.12-.19-.32-1.45-.16-2.98.31-4.39.47-1.42,1.25-2.72,2.17-3.89,1.97-2.37,3.06-5.3,3.95-8.19.45-1.45.82-2.92,1.24-4.37.22-.72.43-1.45.78-2.07.4-.7.59-1.45.8-2.18.39-1.47.75-2.93,1.36-4.29.58-1.37,1.42-2.61,2.47-3.64,2.66-1.81,5.3-3.63,7.94-5.48,1.32-.93,2.64-1.85,3.92-2.85,1.26-1.02,2.53-1.94,4.05-2.4,1.5-.5,3.08-.64,4.7-.82,1.62-.22,3.2-.6,4.76-1.02,3.02-.82,5.98-1.81,8.91-2.9.56,1.66.9,3.48.59,5.17-.18.9-.65,1.65-1.4,2.19-.76.57-1.54,1.11-2.34,1.62-3.21,2.04-6.67,3.69-10.25,5h.04c-1.03.27-1.76.88-2.49,1.51-.71.63-1.32,1.38-1.89,2.11-1.15,1.42-2.59,2.62-3.96,3.88-.69.63-1.38,1.26-2.02,1.96-.62.7-1.27,1.46-1.48,2.48-.28,1.82-.88,3.59-1.39,5.38-.26.89-.53,1.79-.75,2.7-.12.45-.21.92-.29,1.39-.08.47-.05,1,.06,1.45.36,1.84.75,3.65,1.03,5.49.28,1.84.5,3.69.54,5.54.04,1.85-.07,3.72-.63,5.47-.02.08.01.16.09.19.08.03.17,0,.21-.08h0c.74-1.77,1.05-3.7,1.14-5.6.08-1.91,0-3.81-.16-5.7-.15-1.88-.43-3.8-.65-5.59,0-.03,0-.04,0-.07.1.07.2.14.31.2.05.23.09.45.15.68l.31-.41c.26.14.52.28.8.39.39.14.78.32,1.32.23.11-.02.2-.12.2-.24v-.03s-.06-3.27-.06-3.27c-.01-1.09-.1-2.18-.16-3.26-.07-1.01-.14-2.02-.24-3.04.13-.48.25-.96.36-1.46.01-.01.02-.02.02-.04.03-.04.05-.08.07-.12.02-.07.15-.21.21-.32l.32-.39.4-.42c.56-.57,1.24-1.14,1.94-1.73,1.4-1.19,2.92-2.35,4.39-4.03l.45-.52c.13-.16.27-.29.4-.44.27-.28.54-.55.81-.78.27-.24.55-.44.8-.59.13-.08.25-.14.35-.19.04-.01.06-.02.09-.03-.02,0-.06.01-.12.03l.44-.11c.54-.18,1.07-.39,1.6-.59.13.54.24,1.09.34,1.63.26,1.37.44,2.75.54,4.14.22,2.78.23,5.59.25,8.43.07,2.84.11,5.68.48,8.67.05.37.1.75.18,1.14.04.36.19.82.33,1.26.14.48.29.77.44,1.15.15.37.31.72.46,1.04l1.79,3.84c2.22,5.01,3.9,10.12,4.15,15.4.33,5.25-.38,10.55-2.18,15.58-.86,2.57-1.9,5.11-2.98,7.76-1.06,2.64-2.2,5.46-2.76,8.6-.27,1.57-.37,3.2-.29,4.82.03.41.04.8.1,1.22.07.43.14.89.21,1.21l.41,2.11c.54,2.8,1.13,5.56,1.75,8.33.62,2.77,1.2,5.54,1.85,8.3l1.97,8.28,2.13,8.25,1.07,4.12,1.17,4.1h0c.02.09.1.14.18.13.09-.02.14-.1.13-.18l-6.05-33.44-1.47-8.36-.35-2.09-.16-1.03c-.04-.34-.04-.7-.06-1.04-.04-1.39.08-2.79.34-4.16.55-2.75,1.6-5.38,2.69-7.98,1.09-2.61,2.2-5.23,3.13-7.92,1.86-5.39,2.63-11.17,2.16-16.85-.44-5.7-2.35-11.2-4.89-16.26l-1.95-3.78c-.17-.31-.32-.63-.46-.95-.14-.32-.31-.63-.41-.96-.25-.63-.39-1.33-.51-2.02-.49-2.77-.68-5.6-.92-8.42-.23-2.82-.45-5.65-.88-8.46-.22-1.4-.5-2.8-.87-4.17-.15-.55-.32-1.09-.51-1.63,1.16-.44,2.32-.91,3.46-1.43,1.82-.84,3.62-1.75,5.35-2.84.86-.54,1.72-1.12,2.56-1.74l.16-.12s.1-.07.2-.16c.17-.15.33-.3.49-.45.34-.3.57-.67.83-1.03.25-.36.39-.74.57-1.11.13-.36.24-.74.33-1.1.3-1.43.23-2.68.08-3.85-.08-.59-.2-1.14-.33-1.7ZM8.8,3.1s0,0,0,0c0,0-.02,0-.02,0-.02,0-.02,0-.02,0,0,0,0-.01.03,0Zm-.79,26.36c.44-2.18.91-4.36,1.34-6.6.42-2.24.79-4.57.86-6.97.04-1.2-.06-2.44-.1-3.51l-.16-3.33-.27-5.57c.06.04.13.07.19.11.83.49,1.74,1.18,2.39,1.79.68.69,1.25,1.52,1.76,2.41.47.92.91,1.88,1.22,2.9,1.34,4.08,1.57,8.57,1.45,12.99l.02-.09c-.1.46-.15.88-.17,1.32-.01.34,0,.67.03,1.01l-.85,1-.09.1-.05.06c-1.52,2.06-3.01,4.2-4.58,6.24-.78,1.03-1.58,2.02-2.37,3.02l-.64.81c-.23.28-.44.59-.65.9-.42.61-.78,1.26-1.1,1.94-.06.13-.11.26-.16.39.2-1.45.46-2.93.71-4.4.38-2.17.78-4.34,1.23-6.52Zm20.8,3.55c-.2.1-.43.2-.61.29-.73.38-1.39.77-2.02,1.17-1.26.8-2.45,1.61-3.63,2.44-2.27,1.6-4.46,3.22-6.66,4.89-.06.02-.11.05-.17.07-.19.09-.39.17-.57.27-.37.18-.72.39-1.06.63-.67.46-1.3,1.01-1.85,1.64-1.09,1.27-1.84,2.87-2.09,4.46l-.08.59c-.02.19-.05.42-.06.55l-.06.9c-.05.6-.1,1.2-.17,1.78-.13,1.18-.33,2.32-.58,3.45-.25,1.13-.59,2.27-.96,3.45-.3.91-.48,1.8-.61,2.68,0-.01,0-.02,0-.03.09-1.16.08-2.34.11-3.51-.03-1.17-.04-2.36-.13-3.51-.16-2.3-.35-4.61-.91-7.07-.09-.43-.21-.88-.34-1.31.05-.78.13-1.56.27-2.33.22-1.27.64-2.5,1.26-3.63.61-1.14,1.43-2.13,2.32-3.08.89-.96,1.75-1.95,2.6-2.95,1.69-1.99,3.33-4.03,4.93-6.09l5.63-6.15v-.02s.02-.01.02-.01c2.04-2.65,4.46-5.05,7.1-7.11.66-.51,1.36-1.01,2.01-1.58.65-.57,1.25-1.19,1.81-1.83,1.15-1.3,2.04-2.77,2.92-4.21.44-.72.87-1.45,1.33-2.15.23-.35.46-.7.72-1.01.13-.16.26-.31.4-.43.13-.13.3-.2.34-.18.02,0,.01,0,.05.02l.12.09.24.17c.16.12.31.27.46.4.29.29.58.59.83.91.52.64.98,1.34,1.35,2.08.76,1.47,1.23,3.11,1.24,4.76.03,1.65-.43,3.29-1.32,4.69l-3.5,4.41c-1.2,1.46-2.25,3.02-3.68,4.23-.69.63-1.41,1.24-2.09,1.91-.34.34-.67.68-.95,1.08-.3.4-.46.89-.64,1.31l-.53,1.29c-.56.37-1.09.71-1.61,1-.25.13-.5.27-.72.36l-.49.23Zm-2.18,27.61c.01-.06.02-.13.03-.19.1-.62.2-1.23.25-1.87.03-.32.05-.64.05-.99l-.03-.51c0-.11,0-.24,0-.36.1-1,.65-2.04,1.36-2.68.18-.15.37-.3.56-.39.2-.11.62-.35.84-.5l1.58-1.02c.18-.12.36-.24.54-.36-.11,1.59.11,3.14.69,4.54-.08.06-.15.11-.23.17-1.88,1.38-3.77,2.76-5.65,4.15Zm14.3-9.97c-.95.31-1.93.78-2.77,1.34-.85.56-1.54,1.14-2.15,1.64-.68.56-1.43,1.13-2.2,1.7.02-1.15.18-2.3.49-3.4.27-.9.66-1.77,1.15-2.58,2.04-1.38,4.07-2.75,6.11-4.09.05.05.09.09.14.15.36.4.68.84.98,1.29.61.9,1.13,1.87,1.62,2.85.05.11.1.21.15.32-.26.04-.51.07-.77.1-.9.15-1.82.35-2.77.67Zm-4,33.27c-.03.06-.16.08-.29.1-.12.01-.25.01-.39.01l.15-.2c.09-.02.19-.03.28-.02.05,0,.09,0,.14.02.02,0,.03,0,.04.02.05.02.12.07.07.09Z"/>
      <path class="cls-1" d="m47.5,65.44s-.02,0-.03.01c.06-.01.03,0,.05-.02,0,0,0,0-.02,0Z"/>
      <path class="cls-1" d="m239.97,45.91c5.89,1.54,10.54,6.18,12.07,12.07.15.58.94.58,1.09,0,1.54-5.89,6.18-10.54,12.07-12.07.58-.15.58-.94,0-1.09-5.89-1.54-10.54-6.18-12.07-12.07-.15-.58-.94-.58-1.09,0-1.54,5.89-6.18,10.54-12.07,12.07-.58.15-.58.94,0,1.09Z"/>
      <path class="cls-1" d="m228.58,15.59c3.51.91,6.27,3.68,7.18,7.18.09.34.56.34.65,0,.91-3.51,3.68-6.27,7.18-7.18.34-.09.34-.56,0-.65-3.51-.91-6.27-3.68-7.18-7.18-.09-.34-.56-.34-.65,0-.91,3.51-3.68,6.27-7.18,7.18-.34.09-.34.56,0,.65Z"/>
      <path class="cls-1" d="m281.29,25.4c-3.51-.91-6.27-3.68-7.18-7.18-.09-.34-.56-.34-.65,0-.91,3.51-3.68,6.27-7.18,7.18-.34.09-.34.56,0,.65,3.51.91,6.27,3.68,7.18,7.18.09.34.56.34.65,0,.91-3.51,3.68-6.27,7.18-7.18.34-.09.34-.56,0-.65Z"/>
      <path class="cls-1" d="m86.91,45.91c5.89,1.54,10.54,6.18,12.07,12.07.15.58.94.58,1.09,0,1.54-5.89,6.18-10.54,12.07-12.07.58-.15.58-.94,0-1.09-5.89-1.54-10.54-6.18-12.07-12.07-.15-.58-.94-.58-1.09,0-1.54,5.89-6.18,10.54-12.07,12.07-.58.15-.58.94,0,1.09Z"/>
      <path class="cls-1" d="m108.53,15.59c3.51.91,6.27,3.68,7.18,7.18.09.34.56.34.65,0,.91-3.51,3.68-6.27,7.18-7.18.34-.09.34-.56,0-.65-3.51-.91-6.27-3.68-7.18-7.18-.09-.34-.56-.34-.65,0-.91,3.51-3.68,6.27-7.18,7.18-.34.09-.34.56,0,.65Z"/>
      <path class="cls-1" d="m78.01,33.23c.09.34.56.34.65,0,.91-3.51,3.68-6.27,7.18-7.18.34-.09.34-.56,0-.65-3.51-.91-6.27-3.68-7.18-7.18-.09-.34-.56-.34-.65,0-.91,3.51-3.68,6.27-7.18,7.18-.34.09-.34.56,0,.65,3.51.91,6.27,3.68,7.18,7.18Z"/>
    </g>
  </g>
</svg>